<?xml version="1.0" encoding="utf-8"?>
<!-- Generator: Adobe Illustrator 22.1.0, SVG Export Plug-In . SVG Version: 6.00 Build 0)  -->
<svg version="1.1" id="Layer_1" xmlns="http://www.w3.org/2000/svg" xmlns:xlink="http://www.w3.org/1999/xlink" x="0px" y="0px"
	 viewBox="0 0 1973.6 2498.9" style="enable-background:new 0 0 1973.6 2498.9;" xml:space="preserve">
<style type="text/css">
	.st0{fill:#FFFFFF;}
</style>
<rect x="-896.6" y="-12" width="3912" height="2520.1"/>
<path class="st0" d="M1844.7,2914.1l-360.1-1481.3c27-64.3,42.1-135.4,42.1-210.2c0-285.2-217.2-516.7-484.7-516.7
	s-484.7,231.5-484.7,516.7c0,74.8,15.1,146,42.1,210.2L255,2914.1H1844.7z"/>
<g>
	<g>
		<g>
			<path id="SVGID_3_" d="M965.7,2157.7c21.8-5.3,37.1-24.8,37.1-47.3c0.1-2,0.1-3.9,0.1-5.7c0-7.7-3.9-14.8-10.5-18.9
				c-30.2-19-50.3-52.7-50.3-91c0-59.4,48.2-107.7,107.7-107.7c59.4,0,107.7,48.3,107.7,107.7c0,36.7-18.4,69.1-46.4,88.5
				c-8.9,6.1-14.2,16.3-14.2,27.1c-0.2,2-0.2,4.1-0.2,6.2c0,19.1,13.2,35.7,31.9,39.9c64.6,14.6,124.4,47.3,171.9,94.9
				c66.5,66.5,103.9,156.7,103.9,250.7H695.3c0-94,37.3-184.2,103.9-250.7C845.3,2205.2,903.1,2173,965.7,2157.7z"/>
		</g>
		<g>
			<defs>
				<path id="SVGID_1_" d="M965.7,2152.7c21.8-5.3,37.1-24.8,37.1-47.3c0.1-2,0.1-3.9,0.1-5.7c0-7.7-3.9-14.8-10.5-18.9
					c-30.2-19-50.3-52.7-50.3-91c0-59.4,48.2-107.7,107.7-107.7c59.4,0,107.7,48.3,107.7,107.7c0,36.7-18.4,69.1-46.4,88.5
					c-8.9,6.1-14.2,16.3-14.2,27.1c-0.2,2-0.2,4.1-0.2,6.2c0,19.1,13.2,35.7,31.9,39.9c64.6,14.6,124.4,47.3,171.9,94.9
					c66.5,66.5,103.9,156.7,103.9,250.7H695.3c0-94,37.3-184.2,103.9-250.7C845.3,2200.2,903.1,2168,965.7,2152.7z"/>
			</defs>
			<clipPath id="SVGID_2_">
				<use xlink:href="#SVGID_1_"  style="overflow:visible;"/>
			</clipPath>
		</g>
	</g>
	<path d="M1174.5,1987.2c7.9,3.2,9.8,16.7,4.3,30s-16.3,21.6-24.1,18.3c-7.9-3.2-9.8-16.7-4.3-30S1166.7,1984,1174.5,1987.2z"/>
	<path d="M925,1987.2c-7.9,3.2-9.8,16.7-4.3,30s16.3,21.6,24.1,18.3c7.9-3.2,9.8-16.7,4.3-30S932.8,1984,925,1987.2z"/>
</g>
</svg>
